<svg t="1665616881657" class="icon" viewBox="0 0 1024 1024" version="1.1" xmlns="http://www.w3.org/2000/svg"
    p-id="2291">
    <path
        d="M352.853333 970.666667H180.48c-85.546667 0-127.146667-39.765333-127.146667-121.6V174.933333c0-81.834667 41.6-121.6 127.146667-121.6h172.373333c85.546667 0 127.146667 39.765333 127.146667 121.6v674.133334c0 81.834667-41.6 121.6-127.146667 121.6z m-172.373333-853.333334c-54.016 0-63.146667 14.378667-63.146667 57.6v674.133334c0 43.221333 9.130667 57.6 63.146667 57.6h172.373333c54.016 0 63.146667-14.378667 63.146667-57.6V174.933333c0-43.221333-9.130667-57.6-63.146667-57.6z"
        p-id="2292"></path>
    <path
        d="M843.52 586.666667h-172.373333c-85.546667 0-127.146667-39.765333-127.146667-121.6V174.933333c0-81.834667 41.6-121.6 127.146667-121.6h172.373333c85.546667 0 127.146667 39.765333 127.146667 121.6v290.133334c0 81.834667-41.6 121.6-127.146667 121.6z m-172.373333-469.333334c-54.016 0-63.146667 14.378667-63.146667 57.6v290.133334c0 43.221333 9.130667 57.6 63.146667 57.6h172.373333c54.016 0 63.146667-14.378667 63.146667-57.6V174.933333c0-43.221333-9.130667-57.6-63.146667-57.6zM843.52 970.666667h-172.373333c-85.546667 0-127.146667-39.765333-127.146667-121.6v-76.8c0-81.834667 41.6-121.6 127.146667-121.6h172.373333c85.546667 0 127.146667 39.765333 127.146667 121.6v76.8c0 81.834667-41.6 121.6-127.146667 121.6z m-172.373333-256c-54.016 0-63.146667 14.378667-63.146667 57.6v76.8c0 43.221333 9.130667 57.6 63.146667 57.6h172.373333c54.016 0 63.146667-14.378667 63.146667-57.6v-76.8c0-43.221333-9.130667-57.6-63.146667-57.6z"
        p-id="2293"></path>
</svg>